# xmcd CD database file
# Copyright (C) 1993-1998 Ti Kan
# 
# Track frame offsets:
#     150
#     14177
#     37822
#     49705
#     63562
#     75600
#     86235
#     101320
#     116275
#     128245
#     142960
#     155022
#     172234
#     191027
#     205617
# 
# Disc length: 2933 seconds
# 
# Revision: 1
# Processed by: cddbd v1.4b41PL1 Copyright (c) Steve Scherf et al.
# Submitted via: DiscPlay 4.0.4
# 
DISCID=cc0b730f
DTITLE=Dolly Parton - Dolly Parton ( the best of part I )
DYEAR=1900
DGENRE=
TTITLE0=I will always love you
TTITLE1=You are
TTITLE2=Jolene
TTITLE3=Coat of many colors
TTITLE4=To daddy
TTITLE5=Love is like a butterfly
TTITLE6=Sandy's song
TTITLE7=Downtown
TTITLE8=Me and little Andy
TTITLE9=Almost in love
TTITLE10=The bargain store
TTITLE11=Save the last dance for me
TTITLE12=Islands in the stream (& Kenny Rodgers)
TTITLE13=Harper Valley P.T.A.
TTITLE14=We used to
EXTD=
EXTT0=
EXTT1=
EXTT2=
EXTT3=
EXTT4=
EXTT5=
EXTT6=
EXTT7=
EXTT8=
EXTT9=
EXTT10=
EXTT11=
EXTT12=
EXTT13=
EXTT14=
PLAYORDER=
